<svg xmlns="http://www.w3.org/2000/svg" width="30" height="22" fill="none" viewBox="0 0 30 22"><g clip-path="url(#clip0_38_57)"><path fill="#fff" d="M25.4129 1.84247C23.4419 0.969333 21.3611 0.349904 19.2237 0C18.9312 0.505909 18.6665 1.02642 18.4308 1.55936C16.1541 1.2274 13.8388 1.2274 11.562 1.55936C11.3262 1.02648 11.0616 0.50597 10.7692 0C8.63043 0.352858 6.54826 0.973759 4.57525 1.84703C0.658307 7.45434 -0.403515 12.9224 0.127396 18.3128C2.42126 19.9526 4.98874 21.1998 7.71824 22C8.33284 21.2002 8.87669 20.3517 9.34401 19.4635C8.4564 19.1427 7.59971 18.747 6.78384 18.2808C6.99856 18.1301 7.20857 17.9749 7.41149 17.8242C9.78548 18.9044 12.3766 19.4645 15 19.4645C17.6234 19.4645 20.2145 18.9044 22.5885 17.8242C22.7937 17.9863 23.0038 18.1416 23.2161 18.2808C22.3987 18.7477 21.5404 19.1442 20.6512 19.4658C21.118 20.3535 21.6619 21.2013 22.277 22C25.0088 21.203 27.5783 19.9564 29.8726 18.3151C30.4955 12.0639 28.8084 6.64612 25.4129 1.84247ZM10.0165 14.9977C8.53702 14.9977 7.31475 13.6986 7.31475 12.1005C7.31475 10.5023 8.49455 9.19178 10.0118 9.19178C11.529 9.19178 12.7418 10.5023 12.7159 12.1005C12.6899 13.6986 11.5243 14.9977 10.0165 14.9977ZM19.9835 14.9977C18.5016 14.9977 17.2841 13.6986 17.2841 12.1005C17.2841 10.5023 18.4639 9.19178 19.9835 9.19178C21.503 9.19178 22.7064 10.5023 22.6805 12.1005C22.6545 13.6986 21.4912 14.9977 19.9835 14.9977Z"/></g><defs><clipPath id="clip0_38_57"><rect width="30" height="22" fill="#fff"/></clipPath></defs></svg>